<svg enable-background="new 0 0 407.62 221.61" version="1.1" viewBox="0 0 407.62 221.61" xmlns="http://www.w3.org/2000/svg"><style type="text/css">.st0{fill:#FF680A;}
	.st1{fill:#7A7F82;}
	.st2{fill:#FFFFFF;}</style><path class="st0" d="m100.92 116.88c0 7.32-4.82 13.52-12.87 13.52-7.78 0-13.06-6.39-13.06-13.71v-0.19c0-7.32 4.82-13.52 12.87-13.52 7.78 0 13.06 6.39 13.06 13.7v0.2zm13.89-0.18v-0.19c0-14.26-11.39-25.65-26.77-25.65-15.47 0-26.95 11.58-26.95 25.84v0.18c0 14.26 11.39 25.65 26.76 25.65 15.48 0.01 26.96-11.57 26.96-25.83z"/><path class="st1" d="m253.84 46.43c0 8.34-5.56 13.71-12.13 13.71-6.58 0-12.04-5.46-12.04-13.71v-0.19c0-8.24 5.46-13.71 12.04-13.71 6.57 0 12.13 5.46 12.13 13.71v0.19zm12.67 0v-0.19c0-16.58-11.02-25.65-22.6-25.65-7.32 0-12.04 3.43-15.47 8.06v-7.13h-13.23v64.46h13.23v-21.3c3.33 3.98 7.96 7.41 15.47 7.41 11.77-0.01 22.6-9.08 22.6-25.66z"/><path class="st1" d="m206.61 71.16v-32.32c0-11.95-6.3-18.24-16.76-18.24-6.76 0-11.95 2.78-16.3 7.87-2.59-5-7.5-7.87-13.99-7.87-7.13 0-11.39 3.8-14.63 7.96v-7.04h-14.08v49.64h14.08v-27.69c0-6.67 3.24-10.1 8.52-10.1s8.24 3.43 8.24 10.1v27.69h14.08v-27.69c0-6.67 3.24-10.1 8.52-10.1s8.24 3.43 8.24 10.1v27.69h14.08z"/><path class="st1" d="m97.94 62.1c-3.99 0-6.43-2.09-6.43-4.74 0-3.06 1.47-4.64 5.87-5.28 9.16-1.35 11.41-2.71 11.41-2.71 1.35 11.18-6.59 12.73-10.85 12.73zm24.5 9.04s-0.08-23.87-0.08-32.23c0-9.89-7.68-18.32-22.15-18.32-14.71 0-21.42 8.29-21.42 19.16h13.14c0.17-1.15-0.43-7.03 7.86-7.03 5.98 0 8.86 1.76 8.86 4.78 0 8.3-30.43-1.26-30.43 20.78 0 10.69 7.81 13.99 15.12 13.99 11.25 0 15.31-6.35 15.31-6.35l-0.12 5.2 13.91 0.02z"/><path class="st1" d="m59.71 53.27c-0.64 2.75-3.78 6.87-10.36 6.87-7.69 0-12.59-6.11-12.59-13.71v-0.19c0-7.32 5-13.52 12.04-13.52 6.9 0 9.99 3.77 10.92 7.02h13.14c-0.21-6.2-5.9-19.15-23.97-19.15-15.19 0-26.02 11.67-26.02 25.84v0.18c0 14.17 10.93 25.65 25.84 25.65 17.8 0 23.94-13.16 24.15-19h-13.15z"/><path class="st1" d="m351.12 116.7c0 8.34-5.56 13.71-12.13 13.71-6.58 0-12.04-5.46-12.04-13.71v-0.19c0-8.24 5.46-13.71 12.04-13.71 6.57 0 12.13 5.46 12.13 13.71v0.19zm12.67 0v-0.19c0-16.58-11.02-25.65-22.6-25.65-7.32 0-12.04 3.43-15.47 8.06v-7.13h-13.23v64.46h13.23v-21.3c3.33 3.98 7.96 7.41 15.47 7.41 11.76-0.01 22.6-9.08 22.6-25.66z"/><path class="st1" d="m303.89 141.42v-32.32c0-11.95-6.3-18.24-16.76-18.24-6.76 0-11.95 2.78-16.3 7.87-2.59-5-7.5-7.87-13.99-7.87-7.13 0-11.39 3.8-14.63 7.96v-7.04h-14.08v49.64h14.08v-27.69c0-6.67 3.24-10.1 8.52-10.1s8.24 3.43 8.24 10.1v27.69h14.08v-27.69c0-6.67 3.24-10.1 8.52-10.1s8.24 3.43 8.24 10.1v27.69h14.08z"/><path class="st1" d="m195.22 132.36c-3.99 0-6.43-2.09-6.43-4.74 0-3.06 1.47-4.64 5.87-5.28 9.16-1.35 11.41-2.71 11.41-2.71 1.35 11.19-6.59 12.73-10.85 12.73zm24.49 9.04s-0.08-23.87-0.08-32.23c0-9.89-7.68-18.32-22.15-18.32-14.71 0-21.42 8.29-21.42 19.16h13.14c0.17-1.15-0.43-7.03 7.86-7.03 5.98 0 8.86 1.76 8.86 4.78 0 8.3-30.43-1.26-30.43 20.78 0 10.69 7.8 13.99 15.12 13.99 11.25 0 15.31-6.35 15.31-6.35l-0.12 5.2 13.91 0.02z"/><path class="st1" d="m156.99 123.53c-0.64 2.75-3.78 6.87-10.36 6.87-7.69 0-12.59-6.11-12.59-13.71v-0.19c0-7.32 5-13.52 12.04-13.52 6.9 0 9.99 3.77 10.92 7.02h13.14c-0.21-6.2-5.9-19.15-23.97-19.15-15.19 0-26.02 11.67-26.02 25.84v0.18c0 14.17 10.93 25.65 25.84 25.65 17.8 0 23.94-13.16 24.15-19h-13.15z"/><path class="st0" d="m57.15 129.68s-1.86 0.2-5 0.2-4.93-1.97-4.93-5.24v-20.81h10.26v-12.04h-10.26v-12.69h-14.08v12.69h-7.89v12.04h7.89v22.65c0 11.49 5.77 15.5 14.45 15.5 6.06 0 9.56-0.59 9.56-0.59v-11.71z"/><path class="st1" d="m285.93 190.87c-0.12-2.92-2.45-4.34-5.31-4.34s-5.09 1.4-5.09 4.22c0 2.52 1.68 3.45 5.13 4.22 1.58 0.34 2.92 0.67 2.92 1.99 0 1.12-0.95 1.81-2.6 1.81-1.74 0-2.98-0.85-3.21-2.78h-2.62c0.12 3.25 2.74 5.03 5.8 5.03 2.84 0 5.19-1.5 5.19-4.3 0-2.58-1.77-3.35-4.87-4-1.76-0.39-3.22-0.77-3.22-2.13 0-1.2 0.95-1.83 2.52-1.83 1.42 0 2.58 0.57 2.76 2.11h2.6z"/><polygon class="st1" points="262.36 186.87 262.36 189.25 266.92 189.25 266.92 200.67 269.45 200.67 269.45 189.25 274 189.25 274 186.87"/><path class="st1" d="m258.24 194.89c1.77-0.61 2.76-2.15 2.76-3.93 0-2.13-1.36-4.1-4.42-4.1h-5.96v13.81h2.53v-5.21h2.66l3.08 5.21h2.96l-3.61-5.78zm-2.03-1.69h-3.06v-3.94h3.23c1.36 0 2.05 0.85 2.05 1.91 0.01 1.16-0.8 2.03-2.22 2.03z"/><polygon class="st1" points="238.7 200.67 248.24 200.67 248.24 198.29 241.22 198.29 241.22 194.89 247.32 194.89 247.32 192.49 241.22 192.49 241.22 189.25 247.89 189.25 247.89 186.87 238.7 186.87"/><path class="st1" d="m232.13 186.87h-6.06v13.81h2.52v-4.89h3.25c3.08 0 4.64-2.15 4.64-4.58 0.01-2.25-1.41-4.34-4.35-4.34zm-0.51 6.58h-3.02v-4.2h3.12c1.44 0 2.21 0.85 2.21 2.07-0.01 1.29-0.83 2.13-2.31 2.13z"/><polygon class="st1" points="215.9 193.53 210.93 200.67 214.04 200.67 217.37 195.66 220.73 200.67 223.88 200.67 218.89 193.47 223.47 186.87 220.39 186.87 217.39 191.36 214.4 186.87 211.26 186.87"/><polygon class="st1" points="200.08 200.67 209.62 200.67 209.62 198.29 202.6 198.29 202.6 194.89 208.7 194.89 208.7 192.49 202.6 192.49 202.6 189.25 209.27 189.25 209.27 186.87 200.08 186.87"/><polygon class="st1" points="183.41 200.67 192.96 200.67 192.96 198.29 185.94 198.29 185.94 194.89 192.03 194.89 192.03 192.49 185.94 192.49 185.94 189.25 192.6 189.25 192.6 186.87 183.41 186.87"/><path class="st1" d="m178.36 195.56c-0.1 2.05-1.66 3.1-3.59 3.1-2.9 0-4.16-2.33-4.16-4.89 0-2.86 1.56-4.89 4.24-4.89 1.93 0 3.27 1.09 3.41 2.62h2.58c-0.26-3.12-2.7-4.97-5.9-4.97-4.16 0-6.9 3.12-6.9 7.3 0 3.71 2.13 7.2 6.67 7.2 3.27 0 6.08-1.83 6.21-5.46h-2.56z"/><path class="st1" d="m163.33 194.89c1.78-0.61 2.76-2.15 2.76-3.93 0-2.13-1.36-4.1-4.42-4.1h-5.96v13.81h2.52v-5.21h2.66l3.08 5.21h2.96l-3.6-5.78zm-2.03-1.69h-3.06v-3.94h3.24c1.36 0 2.05 0.85 2.05 1.91 0 1.16-0.81 2.03-2.23 2.03z"/><path class="st1" d="m150.12 195.6c0 2.05-1.16 3-3.04 3-1.97 0-3.21-1.06-3.21-3.21v-8.52h-2.52v8.64c0 3.63 2.39 5.52 5.68 5.52 3.31 0 5.62-1.91 5.62-5.52v-8.64h-2.52v8.73z"/><path class="st1" d="m132.11 186.53c-4.36 0-6.82 3.29-6.82 7.24 0 3.96 2.46 7.26 6.82 7.26 4.38 0 6.82-3.29 6.82-7.24 0-3.97-2.44-7.26-6.82-7.26zm0 12.03c-2.8 0-4.26-2.21-4.26-4.81s1.48-4.75 4.26-4.75c2.82 0 4.26 2.21 4.26 4.81s-1.46 4.75-4.26 4.75z"/><path class="st1" d="m123.27 190.87c-0.12-2.92-2.45-4.34-5.31-4.34s-5.09 1.4-5.09 4.22c0 2.52 1.68 3.45 5.13 4.22 1.58 0.34 2.92 0.67 2.92 1.99 0 1.12-0.95 1.81-2.6 1.81-1.74 0-2.98-0.85-3.21-2.78h-2.62c0.12 3.25 2.74 5.03 5.8 5.03 2.84 0 5.19-1.5 5.19-4.3 0-2.58-1.77-3.35-4.87-4-1.76-0.39-3.21-0.77-3.21-2.13 0-1.2 0.95-1.83 2.52-1.83 1.42 0 2.58 0.57 2.76 2.11h2.59z"/><polygon class="st1" points="102.9 186.87 102.9 196.59 96.65 186.87 93.89 186.87 93.89 200.67 96.39 200.67 96.39 190.83 102.76 200.67 105.4 200.67 105.4 186.87"/><polygon class="st1" points="81.95 200.67 91.5 200.67 91.5 198.29 84.48 198.29 84.48 194.89 90.57 194.89 90.57 192.49 84.48 192.49 84.48 189.25 91.14 189.25 91.14 186.87 81.95 186.87"/><path class="st1" d="m75.38 186.87h-6.06v13.81h2.52v-4.89h3.25c3.08 0 4.64-2.15 4.64-4.58 0.01-2.25-1.41-4.34-4.35-4.34zm-0.51 6.58h-3.02v-4.2h3.12c1.44 0 2.21 0.85 2.21 2.07 0 1.29-0.83 2.13-2.31 2.13z"/><path class="st1" d="m60.3 186.53c-4.36 0-6.82 3.29-6.82 7.24 0 3.96 2.46 7.26 6.82 7.26 4.38 0 6.82-3.29 6.82-7.24 0-3.97-2.44-7.26-6.82-7.26zm0 12.03c-2.8 0-4.26-2.21-4.26-4.81s1.48-4.75 4.26-4.75c2.82 0 4.26 2.21 4.26 4.81s-1.46 4.75-4.26 4.75z"/><polygon class="st1" points="42.76 192.96 39.45 186.87 36.45 186.87 41.46 195.17 41.46 200.67 44 200.67 44 195.17 48.99 186.87 46.08 186.87"/><path class="st1" d="m33.26 193.39c1.38-0.47 2.09-1.83 2.09-3.16 0-1.66-1.18-3.37-3.71-3.37h-6.53v13.81h6.19c2.9 0 4.52-1.89 4.52-3.92 0-1.48-0.87-2.88-2.56-3.36zm-5.63-4.14h3.43c1.18 0 1.74 0.67 1.74 1.5 0 0.89-0.63 1.68-1.91 1.68h-3.25v-3.18zm3.44 9.04h-3.43v-3.79h3.57c1.38 0 2.09 0.87 2.09 1.83-0.01 0.99-0.71 1.96-2.23 1.96z"/><path class="st1" d="m264.67 168.57c-0.12-2.92-2.45-4.34-5.31-4.34s-5.09 1.4-5.09 4.22c0 2.52 1.68 3.45 5.13 4.22 1.58 0.34 2.92 0.67 2.92 1.99 0 1.12-0.95 1.81-2.6 1.81-1.74 0-2.98-0.85-3.21-2.78h-2.62c0.12 3.25 2.74 5.03 5.8 5.03 2.84 0 5.19-1.5 5.19-4.3 0-2.58-1.77-3.35-4.87-4-1.76-0.39-3.21-0.77-3.21-2.13 0-1.2 0.95-1.83 2.52-1.83 1.42 0 2.58 0.57 2.76 2.11h2.59z"/><polygon class="st1" points="248.64 164.57 248.64 174.29 242.38 164.57 239.62 164.57 239.62 178.38 242.13 178.38 242.13 168.53 248.5 178.38 251.14 178.38 251.14 164.57"/><path class="st1" d="m230.2 164.24c-4.36 0-6.82 3.29-6.82 7.24 0 3.96 2.47 7.26 6.82 7.26 4.38 0 6.82-3.29 6.82-7.24 0-3.97-2.45-7.26-6.82-7.26zm0 12.03c-2.8 0-4.26-2.21-4.26-4.81s1.48-4.75 4.26-4.75c2.82 0 4.26 2.21 4.26 4.81s-1.46 4.75-4.26 4.75z"/><rect class="st1" x="218.14" y="164.57" width="2.52" height="13.81"/><polygon class="st1" points="204.48 164.57 204.48 166.96 209.03 166.96 209.03 178.38 211.56 178.38 211.56 166.96 216.11 166.96 216.11 164.57"/><path class="st1" d="m200.22 173.31c0 2.05-1.16 3-3.04 3-1.97 0-3.21-1.06-3.21-3.21v-8.52h-2.52v8.64c0 3.63 2.39 5.52 5.68 5.52 3.31 0 5.62-1.91 5.62-5.52v-8.64h-2.52v8.73z"/><polygon class="st1" points="183.08 175.99 183.08 164.57 180.55 164.57 180.55 178.38 189.55 178.38 189.55 175.99"/><path class="st1" d="m171.12 164.24c-4.36 0-6.82 3.29-6.82 7.24 0 3.96 2.47 7.26 6.82 7.26 4.38 0 6.82-3.29 6.82-7.24 0.01-3.97-2.44-7.26-6.82-7.26zm0 12.03c-2.8 0-4.26-2.21-4.26-4.81s1.48-4.75 4.26-4.75c2.82 0 4.26 2.21 4.26 4.81s-1.46 4.75-4.26 4.75z"/><path class="st1" d="m162.29 168.57c-0.12-2.92-2.45-4.34-5.31-4.34s-5.09 1.4-5.09 4.22c0 2.52 1.68 3.45 5.13 4.22 1.58 0.34 2.92 0.67 2.92 1.99 0 1.12-0.95 1.81-2.6 1.81-1.74 0-2.98-0.85-3.21-2.78h-2.62c0.12 3.25 2.74 5.03 5.8 5.03 2.84 0 5.19-1.5 5.19-4.3 0-2.58-1.77-3.35-4.87-4-1.76-0.39-3.21-0.77-3.21-2.13 0-1.2 0.95-1.83 2.52-1.83 1.42 0 2.58 0.57 2.76 2.11h2.59z"/><polygon class="st1" points="134.44 178.38 143.98 178.38 143.98 175.99 136.96 175.99 136.96 172.6 143.06 172.6 143.06 170.19 136.96 170.19 136.96 166.96 143.63 166.96 143.63 164.57 134.44 164.57"/><polygon class="st1" points="125.94 175.08 122.11 164.57 119.39 164.57 124.79 178.38 127.02 178.38 132.45 164.57 129.76 164.57"/><rect class="st1" x="114.75" y="164.57" width="2.52" height="13.81"/><polygon class="st1" points="101.09 164.57 101.09 166.96 105.64 166.96 105.64 178.38 108.17 178.38 108.17 166.96 112.72 166.96 112.72 164.57"/><path class="st1" d="m96.45 164.57h-2.8l-5.46 13.81h2.74l1.2-3.27h5.78l1.2 3.27h2.8l-5.46-13.81zm-3.49 8.17 2.05-5.54 2.05 5.54h-4.1z"/><polygon class="st1" points="82.05 175.08 78.23 164.57 75.5 164.57 80.91 178.38 83.14 178.38 88.56 164.57 85.88 164.57"/><polygon class="st1" points="55.98 164.57 55.98 174.29 49.72 164.57 46.96 164.57 46.96 178.38 49.47 178.38 49.47 168.53 55.84 178.38 58.48 178.38 58.48 164.57"/><polygon class="st1" points="40.53 164.57 40.53 174.29 34.28 164.57 31.52 164.57 31.52 178.38 34.02 178.38 34.02 168.53 40.4 178.38 43.04 178.38 43.04 164.57"/><rect class="st1" x="25.21" y="164.57" width="2.52" height="13.81"/><path class="st1" d="m68.15 164.24c-4.36 0-6.82 3.29-6.82 7.24 0 3.96 2.47 7.26 6.82 7.26 4.38 0 6.82-3.29 6.82-7.24 0-3.97-2.44-7.26-6.82-7.26zm0 12.03c-2.8 0-4.26-2.21-4.26-4.81s1.48-4.75 4.26-4.75c2.82 0 4.26 2.21 4.26 4.81s-1.46 4.75-4.26 4.75z"/><rect class="st0" x="373.32" y="71.2" width="2.29" height="2.29"/><rect class="st0" x="371.04" y="73.49" width="2.29" height="2.29"/><rect class="st0" x="368.75" y="75.78" width="2.29" height="2.29"/><rect class="st0" x="366.46" y="78.06" width="2.29" height="2.29"/><rect class="st0" x="364.18" y="80.35" width="2.29" height="4.57"/><polygon class="st0" points="382.47 82.64 382.47 80.35 380.19 80.35 380.19 75.78 377.9 75.78 377.9 73.49 375.61 73.49 375.61 78.06 373.32 78.06 373.32 80.35 375.61 80.35 375.61 82.64 373.32 82.64 373.32 80.35 371.04 80.35 371.04 82.64 368.75 82.64 368.75 84.93 366.46 84.93 366.46 87.21 364.18 87.21 364.18 84.93 361.89 84.93 361.89 91.79 384.76 91.79 384.76 82.64"/></svg>
